# xmcd
#
# Track frame offsets:
#	150
#	19265
#	38718
#	54796
#	70892
#	87626
#	100957
#	123766
#	142487
#	160055
#	174970
#
# Disc length: 2564 seconds
#
# Revision: 1
# Processed by: cddbd v1.5.2PL0 Copyright (c) Steve Scherf et al.
# Submitted via: audiograbber 1.83.01
#
DISCID=900a020b
DTITLE=Sarah Blackwood - Wasting time
DYEAR=1900
DGENRE=
TTITLE0=Wasting time
TTITLE1=Coming Home
TTITLE2=Turning
TTITLE3=Way Round
TTITLE4=I´ll keep on waiting
TTITLE5=Long Road
TTITLE6=Sunshine Serenade
TTITLE7=Fall from a star
TTITLE8=These are the days
TTITLE9=Diamond eyed Devil
TTITLE10=Drags me down
EXTD=
EXTT0=
EXTT1=
EXTT2=
EXTT3=
EXTT4=
EXTT5=
EXTT6=
EXTT7=
EXTT8=
EXTT9=
EXTT10=
PLAYORDER=
